<svg xmlns="http://www.w3.org/2000/svg" xmlns:xlink="http://www.w3.org/1999/xlink" id="svg30" width="512" height="512" viewBox="0 0 512 512"><defs id="defs9"><linearGradient id="linearGradient1"><stop id="stop1" offset="0" style="stop-color:#fb233b;stop-opacity:1"/><stop id="stop10" offset="1" style="stop-color:#bf2127;stop-opacity:1"/></linearGradient><linearGradient id="linearGradient1911" x1="25.085" x2="25.085" y1="24.031" y2="26.412" gradientTransform="translate(-17.897 -21.385)" gradientUnits="userSpaceOnUse"><stop id="stop2" offset="0" stop-color="#bf6313" style="stop-color:#fb233b;stop-opacity:1"/><stop id="stop3" offset="1" stop-color="#985433" style="stop-color:#e93549;stop-opacity:1"/></linearGradient><linearGradient id="linearGradient1951" x1="104.791" x2="129.209" y1="13.835" y2="56.13" gradientTransform="translate(-20.108 -.135)scale(.26458)" gradientUnits="userSpaceOnUse"><stop id="stop6" offset="0" stop-color="#f09154" style="stop-color:#ff4055;stop-opacity:1"/><stop id="stop7" offset="1" stop-color="#9d66af" style="stop-color:#fb233b;stop-opacity:1"/></linearGradient><linearGradient id="linearGradient1514" x1=".529" x2="16.404" y1="5.381" y2="5.381" gradientUnits="userSpaceOnUse"><stop id="stop8" offset="0" stop-color="#fff"/><stop id="stop9" offset="1" stop-color="#fff" stop-opacity="0"/></linearGradient><linearGradient xlink:href="#linearGradient1" id="linearGradient10" x1="8.466" x2="8.466" y1=".529" y2="16.404" gradientUnits="userSpaceOnUse"/></defs><g id="g42" transform="translate(.004 .007)scale(30.2361)"><path id="path9" fill="url(#linearGradient1911)" d="M1.198 2.249c-.366 0-.662.326-.662.727V5.94c-.002.026-.007.052-.007.08v7.936c0 .402.296.728.661.728h14.552c.366 0 .662-.326.662-.728V4.563c0-.401-.296-.727-.662-.727H7.543l-.898-1.11s-.367-.477-1.059-.477H4.263z" color="#000" color-rendering="auto" dominant-baseline="auto" image-rendering="auto" shape-rendering="auto" stop-color="#000" style="font-variant-ligatures:normal;font-variant-position:normal;font-variant-caps:normal;font-variant-numeric:normal;font-variant-alternates:normal;font-variant-east-asian:normal;font-feature-settings:normal;font-variation-settings:normal;text-indent:0;text-decoration-line:none;text-decoration-style:solid;text-decoration-color:#000;text-transform:none;text-orientation:mixed;white-space:normal;shape-padding:0;shape-margin:0;inline-size:0;isolation:auto;mix-blend-mode:normal;fill:url(#linearGradient10);fill-opacity:1"/><path id="path11" fill="url(#linearGradient1951)" d="M7.542 4.098s-.36.479-1.157.792l-.101.017H1.323a.8.8 0 0 0-.562.232.8.8 0 0 0-.225.546v.517Q.53 6.24.529 6.28v7.395c0 .2.074.382.193.514s.286.214.469.214h14.552a.63.63 0 0 0 .467-.214.76.76 0 0 0 .194-.514v-8.85a.76.76 0 0 0-.194-.515.63.63 0 0 0-.466-.212H8.262z" style="display:inline;fill:url(#linearGradient1951)"/><path id="path12" fill="url(#linearGradient1514)" d="M7.542 4.098s-.36.479-1.157.792l-.101.017H1.323a.8.8 0 0 0-.562.232.8.8 0 0 0-.225.546v.384a.8.8 0 0 1 .225-.545.8.8 0 0 1 .562-.232h4.96l.101-.017c.76-.263 1.289-.793 1.289-.793h8.07a.63.63 0 0 1 .467.213c.12.131.194.314.194.514v-.384c0-.2-.074-.383-.194-.515a.63.63 0 0 0-.467-.212H8.261ZM.536 6.202Q.53 6.24.529 6.28v.384q.001-.04.007-.079z" opacity=".3" style="display:inline;fill:url(#linearGradient1514)"/><path id="circle22-3-3" d="M8.962 5.55a.5.5 0 0 0-.193.037.4.4 0 0 0-.083.05.45.45 0 0 0-.166.37v4.174a1.74 1.74 0 0 0-1.153-.437 1.74 1.74 0 0 0-1.742 1.742 1.74 1.74 0 0 0 1.742 1.743 1.74 1.74 0 0 0 1.743-1.743v-.004h.001V7.633l1.63.437c.314.084.567-.11.567-.435v-.881a.7.7 0 0 0-.043-.235l-.004-.012c-.057-.177-.182-.39-.458-.471l-.062-.02-.929-.25-.769-.208s-.032-.007-.081-.008" style="display:inline;fill:#fff;fill-opacity:1;stroke-width:.65854;paint-order:stroke fill markers"/></g></svg>