<svg xmlns="http://www.w3.org/2000/svg" xmlns:xlink="http://www.w3.org/1999/xlink" id="svg30" width="512" height="512" viewBox="0 0 512 512"><defs id="defs8"><linearGradient id="linearGradient30"><stop id="stop30" offset="0" style="stop-color:#fff;stop-opacity:1"/><stop id="stop31" offset="1" style="stop-color:#cdcdcd;stop-opacity:1"/></linearGradient><linearGradient id="linearGradient1911" x1="25.085" x2="25.085" y1="24.031" y2="26.412" gradientTransform="translate(-17.897 -21.385)" gradientUnits="userSpaceOnUse"><stop id="stop1" offset="0" stop-color="#fcbc19" stop-opacity=".996" style="stop-color:#8f76e4;stop-opacity:.99607843"/><stop id="stop2" offset="1" stop-color="#f4b61f" style="stop-color:#7660d6;stop-opacity:1"/></linearGradient><linearGradient id="linearGradient1951" x1="100" x2="133.19" y1="17.453" y2="51.606" gradientTransform="translate(-20.108 -.135)scale(.26458)" gradientUnits="userSpaceOnUse"><stop id="stop5" offset="0" stop-color="#fce798" style="stop-color:#8f76e4;stop-opacity:.99607843"/><stop id="stop6" offset="1" stop-color="#ffc937" style="stop-color:#593dbd;stop-opacity:.99607843"/></linearGradient><linearGradient id="linearGradient11110" x1=".529" x2="16.404" y1="5.381" y2="5.381" gradientUnits="userSpaceOnUse"><stop id="stop7" offset="0" stop-color="#fff"/><stop id="stop8" offset="1" stop-color="#fff" stop-opacity="0"/></linearGradient><linearGradient xlink:href="#linearGradient30" id="linearGradient31" x1="5.529" x2="16.066" y1="8.122" y2="11.957" gradientTransform="translate(.87 .322)scale(.94691)" gradientUnits="userSpaceOnUse"/></defs><g id="g1" transform="translate(.01 .01)scale(30.23572)"><path id="path8" fill="url(#linearGradient1911)" d="M1.198 2.249c-.366 0-.662.326-.662.727V5.94q-.006.038-.007.08v7.936c0 .402.296.728.661.728h14.552c.366 0 .662-.326.662-.728V4.563c0-.401-.296-.727-.662-.727H7.543l-.899-1.11s-.366-.477-1.058-.477H4.263z" color="#000" color-rendering="auto" dominant-baseline="auto" image-rendering="auto" shape-rendering="auto" stop-color="#000" style="font-variant-ligatures:normal;font-variant-position:normal;font-variant-caps:normal;font-variant-numeric:normal;font-variant-alternates:normal;font-variant-east-asian:normal;font-feature-settings:normal;font-variation-settings:normal;text-indent:0;text-decoration-line:none;text-decoration-style:solid;text-decoration-color:#000;text-transform:none;text-orientation:mixed;white-space:normal;shape-padding:0;shape-margin:0;inline-size:0;isolation:auto;mix-blend-mode:normal;fill:url(#linearGradient1911)"/><path id="path29" fill="url(#linearGradient1951)" d="M7.542 4.098s-.36.479-1.157.792l-.101.017H1.323a.8.8 0 0 0-.562.232.8.8 0 0 0-.225.546v.517Q.53 6.24.529 6.28v7.395c0 .2.074.382.193.514s.286.214.469.214h14.552a.63.63 0 0 0 .467-.214.76.76 0 0 0 .194-.514v-8.85a.76.76 0 0 0-.194-.515.63.63 0 0 0-.466-.212H8.262z" style="fill:url(#linearGradient1951)"/><path id="path30" fill="url(#linearGradient11110)" d="M7.542 4.098s-.36.479-1.157.792l-.101.017H1.323a.8.8 0 0 0-.562.232.8.8 0 0 0-.225.546v.384a.8.8 0 0 1 .225-.545.8.8 0 0 1 .562-.232h4.96l.101-.017c.76-.263 1.289-.793 1.289-.793h8.07a.63.63 0 0 1 .467.213c.12.131.194.314.194.514v-.384c0-.2-.074-.383-.194-.515a.63.63 0 0 0-.467-.212H8.261ZM.536 6.202Q.53 6.24.529 6.28v.384q.001-.04.007-.079z" opacity=".3" style="fill:url(#linearGradient11110)"/><path id="path3" d="M9.23 6.385a3.46 3.46 0 0 0-3.444 3.444 3.46 3.46 0 0 0 3.444 3.443h7.174v-.574H9.23a2.884 2.884 0 0 1-2.87-2.87 2.884 2.884 0 0 1 2.87-2.87zm0 .86a2.583 2.583 0 1 0 0 5.166h7.174v-.574H9.23a2.009 2.009 0 1 1 .86-3.82v-.62a2.6 2.6 0 0 0-.86-.151m0 .862A1.73 1.73 0 0 0 7.508 9.83a1.73 1.73 0 0 0 1.722 1.72h7.174v-.574H9.23c-.63 0-1.148-.518-1.148-1.147 0-.63.518-1.148 1.148-1.148.409 0 .788.22.992.574h.628a1.72 1.72 0 0 0-1.62-1.148" style="clip-rule:evenodd;fill:url(#linearGradient31);fill-rule:nonzero;stroke-width:.350028;stroke-linejoin:round;stroke-miterlimit:2"/></g></svg>