<svg xmlns="http://www.w3.org/2000/svg" xml:space="preserve" id="svg30" width="512" height="512" viewBox="0 0 512 512"><defs id="defs10"><linearGradient id="linearGradient1093" x1="6.218" x2="10.186" y1="6.088" y2="12.961" gradientTransform="translate(.84 1.34)scale(.90071)" gradientUnits="userSpaceOnUse"><stop id="stop1" offset="0" stop-color="#bf910d" style="stop-color:#fff;stop-opacity:1"/><stop id="stop2" offset="1" stop-color="#a57001" style="stop-color:#f2f2f2;stop-opacity:1"/></linearGradient><linearGradient id="linearGradient1911" x1="25.085" x2="25.085" y1="24.031" y2="26.412" gradientTransform="translate(-17.897 -21.385)" gradientUnits="userSpaceOnUse"><stop id="stop3" offset="0" stop-color="#fcbc19" stop-opacity=".996" style="stop-color:#17abe5;stop-opacity:1"/><stop id="stop4" offset="1" stop-color="#f4b61f" style="stop-color:#1797cc;stop-opacity:1"/></linearGradient><linearGradient id="linearGradient1951" x1="104.689" x2="128.501" y1="13.908" y2="55.151" gradientTransform="translate(-20.108 -.135)scale(.26458)" gradientUnits="userSpaceOnUse"><stop id="stop7" offset="0" stop-color="#fce798" style="stop-color:#1ac0ff;stop-opacity:1"/><stop id="stop8" offset="1" stop-color="#ffc937" style="stop-color:#17abe5;stop-opacity:1"/></linearGradient><linearGradient id="linearGradient11110" x1=".529" x2="16.404" y1="5.381" y2="5.381" gradientUnits="userSpaceOnUse"><stop id="stop9" offset="0" stop-color="#fff"/><stop id="stop10" offset="1" stop-color="#fff" stop-opacity="0"/></linearGradient></defs><g id="g1" transform="translate(.004 .007)scale(30.2361)"><path id="path10" fill="url(#linearGradient1911)" d="M1.198 2.249c-.366 0-.662.326-.662.727V5.94c-.002.026-.007.052-.007.08v7.936c0 .402.296.728.661.728h14.552c.366 0 .662-.326.662-.728V4.563c0-.401-.296-.727-.662-.727H7.543l-.898-1.11s-.367-.477-1.059-.477H4.263z" color="#000" color-rendering="auto" dominant-baseline="auto" image-rendering="auto" shape-rendering="auto" stop-color="#000" style="font-variant-ligatures:normal;font-variant-position:normal;font-variant-caps:normal;font-variant-numeric:normal;font-variant-alternates:normal;font-variant-east-asian:normal;font-feature-settings:normal;font-variation-settings:normal;text-indent:0;text-decoration-line:none;text-decoration-style:solid;text-decoration-color:#000;text-transform:none;text-orientation:mixed;white-space:normal;shape-padding:0;shape-margin:0;inline-size:0;isolation:auto;mix-blend-mode:normal;fill:url(#linearGradient1911)"/><path id="path12" fill="#e4a729" fill-opacity=".996" stroke-width=".265" d="M.53 13.674v.282c0 .201.073.383.192.514.12.132.286.214.469.214h14.552a.63.63 0 0 0 .467-.214.76.76 0 0 0 .194-.514v-.282c0 .2-.074.383-.194.514a.63.63 0 0 1-.467.214H1.19a.63.63 0 0 1-.469-.214.76.76 0 0 1-.193-.514" style="fill:#1797cc;fill-opacity:1"/><path id="path13" fill="url(#linearGradient1951)" d="M7.542 4.098s-.36.479-1.157.792l-.101.017H1.323a.8.8 0 0 0-.562.232.8.8 0 0 0-.225.546v.517Q.53 6.24.529 6.28v7.395c0 .2.074.382.193.514s.286.214.469.214h14.552a.63.63 0 0 0 .467-.214.76.76 0 0 0 .194-.514v-8.85a.76.76 0 0 0-.194-.515.63.63 0 0 0-.466-.212H8.262z" style="fill:url(#linearGradient1951)"/><path id="path14" fill="url(#linearGradient11110)" d="M7.542 4.098s-.36.479-1.157.792l-.101.017H1.323a.8.8 0 0 0-.562.232.8.8 0 0 0-.225.546v.384a.8.8 0 0 1 .225-.545.8.8 0 0 1 .562-.232h4.96l.101-.017c.76-.263 1.289-.793 1.289-.793h8.07a.63.63 0 0 1 .467.213c.12.131.194.314.194.514v-.384c0-.2-.074-.383-.194-.515a.63.63 0 0 0-.467-.212H8.261ZM.536 6.202Q.53 6.24.529 6.28v.384q.001-.04.007-.079z" opacity=".3" style="fill:url(#linearGradient11110)"/><path id="path23" fill="url(#linearGradient1093)" stroke-width=".007" d="M5.913 7c0-.36.286-.65.639-.65h3.83c.352 0 .638.29.638.65v.702a1.64 1.64 0 0 1-.557 1.233l-1.133.99 1.133.988a1.64 1.64 0 0 1 .557 1.234v.702c0 .359-.286.65-.639.65h-3.83a.63.63 0 0 1-.45-.19.66.66 0 0 1-.188-.46v-.702c0-.474.204-.925.558-1.234l1.132-.989-1.133-.988a1.64 1.64 0 0 1-.557-1.234Zm1.643 4.588a.37.37 0 0 0-.073.39.34.34 0 0 0 .314.22H9.16a.34.34 0 0 0 .315-.22.37.37 0 0 0-.074-.39l-.681-.715a.33.33 0 0 0-.482 0z" style="fill:url(#linearGradient1093)"/></g></svg>