<svg xmlns="http://www.w3.org/2000/svg" id="svg30" width="512" height="512" viewBox="0 0 512 512"><defs id="defs16"><linearGradient id="linearGradient1508" x1="3.704" x2="13.229" y1="6.085" y2="12.171" gradientUnits="userSpaceOnUse"><stop id="stop7" offset="0" stop-color="#89a0b2"/><stop id="stop8" offset="1" stop-color="#70899d"/></linearGradient><linearGradient id="linearGradient1911-3" x1="25.085" x2="25.085" y1="24.031" y2="26.412" gradientTransform="translate(-17.897 -21.385)" gradientUnits="userSpaceOnUse"><stop id="stop9" offset="0" stop-color="#637e8d" stop-opacity=".996"/><stop id="stop10" offset="1" stop-color="#516775" stop-opacity=".996"/></linearGradient><linearGradient id="linearGradient1156" x1="5.093" x2="16.404" y1="4.403" y2="13.674" gradientTransform="translate(29.956)scale(.26458)" gradientUnits="userSpaceOnUse"><stop id="stop11" offset="0" stop-color="#b3c4d5"/><stop id="stop12" offset="1" stop-color="#6986a3"/></linearGradient><linearGradient id="linearGradient1186" x1=".529" x2="16.404" y1="5.397" y2="5.397" gradientUnits="userSpaceOnUse"><stop id="stop13" offset="0" stop-color="#fff"/><stop id="stop14" offset="1" stop-color="#fff" stop-opacity="0"/></linearGradient><linearGradient id="linearGradient20568" x1=".529" x2="16.404" y1="14.179" y2="14.179" gradientUnits="userSpaceOnUse"><stop id="stop15" offset="0" stop-color="#445865" stop-opacity=".996"/><stop id="stop16" offset="1" stop-color="#303f4c"/></linearGradient></defs><g id="g127" transform="translate(.005 .005)scale(30.23634)"><path id="path16" fill="url(#linearGradient1911-3)" d="M1.198 2.249c-.366 0-.662.326-.662.727V5.94c-.002.026-.007.052-.007.08v7.936c0 .402.296.728.662.728h14.551c.366 0 .662-.326.662-.728V4.563c0-.401-.296-.727-.662-.727H7.543l-.898-1.11s-.367-.477-1.059-.477H4.263z" color="#000" color-rendering="auto" dominant-baseline="auto" image-rendering="auto" shape-rendering="auto" stop-color="#000" style="font-variant-ligatures:normal;font-variant-position:normal;font-variant-caps:normal;font-variant-numeric:normal;font-variant-alternates:normal;font-variant-east-asian:normal;font-feature-settings:normal;font-variation-settings:normal;text-indent:0;text-decoration-line:none;text-decoration-style:solid;text-decoration-color:#000;text-transform:none;text-orientation:mixed;white-space:normal;shape-padding:0;shape-margin:0;inline-size:0;isolation:auto;mix-blend-mode:normal;fill:url(#linearGradient1911-3)"/><path id="path17" fill="url(#linearGradient1156)" d="M7.542 4.114s-.36.479-1.158.792l-.1.017H1.323a.8.8 0 0 0-.562.232.8.8 0 0 0-.225.546v.517q-.006.039-.007.079v7.395c0 .2.074.382.193.514s.286.214.468.214h14.552a.63.63 0 0 0 .468-.214.76.76 0 0 0 .194-.514V4.841a.76.76 0 0 0-.194-.515.63.63 0 0 0-.467-.212H8.261z" style="fill:url(#linearGradient1156)"/><path id="path18" fill="url(#linearGradient1186)" d="M7.542 4.114s-.36.479-1.157.792l-.101.017H1.323a.8.8 0 0 0-.562.232.8.8 0 0 0-.225.546v.384A.8.8 0 0 1 .76 5.54a.8.8 0 0 1 .562-.232h4.96l.101-.017c.76-.263 1.289-.793 1.289-.793h8.07a.63.63 0 0 1 .467.213c.12.131.194.314.194.514v-.384c0-.2-.074-.383-.194-.515a.63.63 0 0 0-.467-.212H8.261ZM.536 6.218q-.006.039-.007.079v.384q.001-.04.007-.079z" opacity=".3" style="fill:url(#linearGradient1186)"/><g id="g109" stroke-width=".265"><path id="path108" fill="#5a6473" fill-opacity="0" d="M8.36 3.836c-.113.002-.308-.015-.52.095-.736.38-.772.594-1.556.715H1.323a.8.8 0 0 0-.562.232.8.8 0 0 0-.225.545v.278a.8.8 0 0 1 .225-.546.8.8 0 0 1 .562-.232h4.96c.785-.12.821-.335 1.558-.714.211-.11.406-.093.52-.095h7.382a.63.63 0 0 1 .467.212c.12.132.194.314.194.515v-.278c0-.2-.074-.383-.194-.514a.63.63 0 0 0-.467-.213h-1.165ZM.537 5.94q-.006.038-.007.08v.277q.001-.04.007-.08z"/><path id="path109" fill="url(#linearGradient20568)" d="M.53 13.674v.282c0 .201.073.383.192.514.12.132.286.214.469.214h14.552a.63.63 0 0 0 .467-.214.76.76 0 0 0 .194-.514v-.282c0 .2-.074.383-.194.514a.63.63 0 0 1-.467.214H1.19a.63.63 0 0 1-.469-.214.76.76 0 0 1-.193-.514" style="fill:url(#linearGradient20568)"/></g><g id="g126" color="#000" color-rendering="auto" dominant-baseline="auto" shape-rendering="auto"><path id="path122" fill="#c8d2d7" d="M6.539 12.964h3.855l.454.53H6.085z" image-rendering="optimizeSpeed" stop-color="#000" style="font-variant-ligatures:normal;font-variant-position:normal;font-variant-caps:normal;font-variant-numeric:normal;font-variant-alternates:normal;font-variant-east-asian:normal;font-feature-settings:normal;font-variation-settings:normal;text-indent:0;text-decoration-line:none;text-decoration-style:solid;text-decoration-color:#000;text-transform:none;text-orientation:mixed;white-space:normal;shape-padding:0;shape-margin:0;inline-size:0;isolation:auto;mix-blend-mode:normal"/><path id="path123" fill="#e6ebf0" d="M7.673 11.906H9.26v1.323H7.673Z" image-rendering="optimizeSpeed" stop-color="#000" style="font-variant-ligatures:normal;font-variant-position:normal;font-variant-caps:normal;font-variant-numeric:normal;font-variant-alternates:normal;font-variant-east-asian:normal;font-feature-settings:normal;font-variation-settings:normal;text-indent:0;text-decoration-line:none;text-decoration-style:solid;text-decoration-color:#000;text-transform:none;text-orientation:mixed;white-space:normal;shape-padding:0;shape-margin:0;inline-size:0;isolation:auto;mix-blend-mode:normal"/><path id="path124" fill="url(#linearGradient1508)" d="M4.233 6.085H12.7c.293 0 .529.236.529.53v5.026c0 .294-.236.53-.53.53H4.234a.53.53 0 0 1-.529-.53V6.614c0-.293.236-.529.53-.529" image-rendering="auto" stop-color="#000" style="font-variant-ligatures:normal;font-variant-position:normal;font-variant-caps:normal;font-variant-numeric:normal;font-variant-alternates:normal;font-variant-east-asian:normal;font-feature-settings:normal;font-variation-settings:normal;text-indent:0;text-decoration-line:none;text-decoration-style:solid;text-decoration-color:#000;text-transform:none;text-orientation:mixed;white-space:normal;shape-padding:0;shape-margin:0;inline-size:0;isolation:auto;mix-blend-mode:normal;fill:url(#linearGradient1508);paint-order:stroke fill markers"/><path id="path125" fill="#5a6473" d="M6.085 13.493h4.763v.265H6.085Z" image-rendering="optimizeSpeed" stop-color="#000" style="font-variant-ligatures:normal;font-variant-position:normal;font-variant-caps:normal;font-variant-numeric:normal;font-variant-alternates:normal;font-variant-east-asian:normal;font-feature-settings:normal;font-variation-settings:normal;text-indent:0;text-decoration-line:none;text-decoration-style:solid;text-decoration-color:#000;text-transform:none;text-orientation:mixed;white-space:normal;shape-padding:0;shape-margin:0;inline-size:0;isolation:auto;mix-blend-mode:normal"/><path id="path126" fill="#e6ebf0" d="M4.233 6.35H12.7c.146 0 .264.118.264.264v5.027a.264.264 0 0 1-.264.265H4.233a.264.264 0 0 1-.264-.265V6.614c0-.146.118-.264.264-.264" image-rendering="auto" stop-color="#000" style="font-variant-ligatures:normal;font-variant-position:normal;font-variant-caps:normal;font-variant-numeric:normal;font-variant-alternates:normal;font-variant-east-asian:normal;font-feature-settings:normal;font-variation-settings:normal;text-indent:0;text-decoration-line:none;text-decoration-style:solid;text-decoration-color:#000;text-transform:none;text-orientation:mixed;white-space:normal;shape-padding:0;shape-margin:0;inline-size:0;isolation:auto;mix-blend-mode:normal;paint-order:stroke fill markers"/></g></g></svg>